#N canvas 0 0 667 679 10;
#X obj -52 68 line~;
#X obj 10 91 line~;
#X obj -51 94 osc~;
#X obj -52 118 *~;
#X obj -52 -15 trigger bang bang bang bang;
#X msg 134 10 1 5;
#X msg 72 11 100 1;
#X obj 10 10 delay 5;
#X obj -52 11 delay 1;
#X msg 10 39 0 150;
#X msg -52 39 0 150;
#X obj -52 -41 trigger bang;
#X obj -51 165 dac~;
#X msg -51 -88 bang;
#X text -35 -65 Kick (it's low ! put on headphones );
#X connect 0 0 2 0;
#X connect 1 0 3 1;
#X connect 2 0 3 0;
#X connect 3 0 12 0;
#X connect 3 0 12 1;
#X connect 4 0 8 0;
#X connect 4 1 7 0;
#X connect 4 2 6 0;
#X connect 4 3 5 0;
#X connect 5 0 1 0;
#X connect 6 0 0 0;
#X connect 7 0 9 0;
#X connect 8 0 10 0;
#X connect 9 0 1 0;
#X connect 10 0 0 0;
#X connect 11 0 4 0;
#X connect 13 0 11 0;
