#N canvas 513 17 667 679 10;
#X obj 108 -28 trigger bang;
#X obj 108 85 line~;
#X obj 108 2 trigger bang bang;
#X obj 110 192 *~ 0.5;
#X obj 109 164 *~;
#X obj 127 110 noise~;
#X msg 108 57 0 149;
#X obj 127 137 hip~ 3000;
#X text 106 -61 Hihat open;
#X obj 112 231 dac~;
#X msg 69 -26 bang;
#X obj 108 28 delay 5;
#X msg 224 27 1 5;
#X connect 0 0 2 0;
#X connect 1 0 4 0;
#X connect 2 0 11 0;
#X connect 2 1 12 0;
#X connect 3 0 9 0;
#X connect 3 0 9 1;
#X connect 4 0 3 0;
#X connect 5 0 7 0;
#X connect 6 0 1 0;
#X connect 7 0 4 1;
#X connect 10 0 0 0;
#X connect 11 0 6 0;
#X connect 12 0 1 0;
