#N canvas 352 36 667 679 10;
#X obj 57 87 line~;
#X obj 119 113 line~;
#X obj 57 139 *~;
#X obj 57 6 trigger bang bang bang bang;
#X msg 243 31 1 5;
#X obj 119 31 delay 5;
#X obj 57 32 delay 1;
#X obj 58 113 phasor~;
#X obj 56 164 *~ 0.5;
#X obj 186 193 line~;
#X obj 112 219 *~;
#X msg 302 135 1 5;
#X obj 186 136 delay 5;
#X obj 186 110 trigger bang bang;
#X obj 111 165 noise~;
#X obj 57 -20 trigger bang bang;
#X obj 57 239 +~;
#X msg 181 32 500 1;
#X msg 186 165 0 99;
#X text 71 -71 Snare;
#X obj 111 192 lop~ 800;
#X msg 57 60 0 150;
#X msg 119 60 0 75;
#X obj 57 285 dac~;
#X msg 58 -45 bang;
#X connect 0 0 7 0;
#X connect 1 0 2 1;
#X connect 2 0 8 0;
#X connect 3 0 6 0;
#X connect 3 1 5 0;
#X connect 3 2 17 0;
#X connect 3 3 4 0;
#X connect 4 0 1 0;
#X connect 5 0 22 0;
#X connect 6 0 21 0;
#X connect 7 0 2 0;
#X connect 8 0 16 0;
#X connect 9 0 10 1;
#X connect 10 0 16 1;
#X connect 11 0 9 0;
#X connect 12 0 18 0;
#X connect 13 0 12 0;
#X connect 13 1 11 0;
#X connect 14 0 20 0;
#X connect 15 0 3 0;
#X connect 15 1 13 0;
#X connect 16 0 23 0;
#X connect 16 0 23 1;
#X connect 17 0 0 0;
#X connect 18 0 9 0;
#X connect 20 0 10 0;
#X connect 21 0 0 0;
#X connect 22 0 1 0;
#X connect 24 0 15 0;
