#N canvas 0 0 667 679 10;
#X obj 57 -57 trigger bang;
#X obj 57 58 line~;
#X obj 56 -25 trigger bang bang;
#X msg 57 30 0 50;
#X obj 58 172 *~ 0.5;
#X obj 58 146 *~;
#X obj 75 89 noise~;
#X obj 75 116 hip~ 5000;
#X text 63 -86 Hihat closed;
#X msg 18 -60 bang;
#X obj 59 202 dac~;
#X msg 149 1 1 5;
#X obj 57 1 delay 5;
#X connect 0 0 2 0;
#X connect 1 0 5 0;
#X connect 2 0 12 0;
#X connect 2 1 11 0;
#X connect 3 0 1 0;
#X connect 4 0 10 0;
#X connect 4 0 10 1;
#X connect 5 0 4 0;
#X connect 6 0 7 0;
#X connect 7 0 5 1;
#X connect 9 0 0 0;
#X connect 11 0 1 0;
#X connect 12 0 3 0;
