#N canvas -8 -8 1366 695 10;
#X obj 101 322 line~;
#X obj 81 347 *~;
#X obj 197 321 line~;
#X obj 177 346 *~;
#X obj 180 222 sel 0;
#X obj 167 256 t b b;
#X obj 210 256 t b b;
#X obj 101 256 r init;
#X obj 271 328 line~;
#X obj 271 288 mtof;
#X obj 177 364 *~;
#X obj 271 350 osc~;
#X obj 82 380 *~ 1;
#X msg 271 308 \$1 5;
#X obj 82 209 *~ 1;
#X msg 101 290 1 500;
#X msg 136 290 0 500;
#X msg 198 290 1 500;
#X msg 230 289 0 500;
#X obj 182 180 r pjsringmod_on1;
#X obj 311 226 r pjsringmod1;
#X connect 0 0 1 1;
#X connect 1 0 12 0;
#X connect 2 0 3 1;
#X connect 3 0 10 0;
#X connect 4 0 5 0;
#X connect 4 1 6 0;
#X connect 5 0 15 0;
#X connect 5 1 18 0;
#X connect 6 0 16 0;
#X connect 6 1 17 0;
#X connect 7 0 15 0;
#X connect 7 0 18 0;
#X connect 8 0 11 0;
#X connect 9 0 13 0;
#X connect 10 0 12 0;
#X connect 11 0 10 1;
#X connect 13 0 8 0;
#X connect 14 0 1 0;
#X connect 14 0 3 0;
#X connect 15 0 0 0;
#X connect 16 0 0 0;
#X connect 17 0 2 0;
#X connect 18 0 2 0;
#X connect 19 0 4 0;
#X connect 20 0 9 0;
