#N canvas 0 0 1023 679 10;
#X obj 172 83 hip~;
#X obj 172 23 lop~;
#X obj 316 243 *~ 1;
#X obj 172 102 hip~;
#X obj 172 43 lop~;
#X obj 172 142 lop~;
#X obj 193 3 t f;
#X obj 172 63 *~ 3;
#X obj 172 122 *~ 0.5;
#X obj 163 -88 *~;
#X msg 218 -187 bang;
#X obj 218 -167 t b b;
#X msg 274 -147 1 5;
#X obj 218 -147 delay 10;
#X obj 218 -102 line~;
#X obj 221 83 hip~;
#X obj 221 23 lop~;
#X obj 221 102 hip~;
#X obj 221 43 lop~;
#X obj 221 142 lop~;
#X obj 242 3 t f;
#X obj 221 63 *~ 3;
#X obj 221 122 *~ 0.5;
#X obj 268 83 hip~;
#X obj 268 23 lop~;
#X obj 268 102 hip~;
#X obj 268 43 lop~;
#X obj 268 142 lop~;
#X obj 289 3 t f;
#X obj 268 63 *~ 3;
#X obj 268 122 *~ 0.5;
#X obj 315 84 hip~;
#X obj 315 24 lop~;
#X obj 315 103 hip~;
#X obj 315 44 lop~;
#X obj 315 143 lop~;
#X obj 336 4 t f;
#X obj 315 64 *~ 3;
#X obj 315 123 *~ 0.5;
#X msg 345 -181 221;
#X msg 375 -181 333;
#X msg 407 -181 426;
#X msg 437 -181 527;
#X msg 297 -234 bang wood;
#X obj 164 -141 *~;
#X msg 218 -126 0 15;
#X obj 297 -273 r pjshit;
#X obj 163 -165 noise~;
#X obj 164 -115 *~;
#X obj 317 286 dac~;
#X connect 0 0 3 0;
#X connect 1 0 4 0;
#X connect 2 0 49 0;
#X connect 2 0 49 1;
#X connect 3 0 8 0;
#X connect 4 0 7 0;
#X connect 5 0 2 0;
#X connect 6 0 0 1;
#X connect 6 0 3 1;
#X connect 6 0 1 1;
#X connect 6 0 4 1;
#X connect 6 0 5 1;
#X connect 7 0 0 0;
#X connect 8 0 5 0;
#X connect 9 0 1 0;
#X connect 9 0 16 0;
#X connect 9 0 24 0;
#X connect 9 0 32 0;
#X connect 10 0 11 0;
#X connect 11 0 13 0;
#X connect 11 1 12 0;
#X connect 12 0 14 0;
#X connect 13 0 45 0;
#X connect 14 0 9 1;
#X connect 15 0 17 0;
#X connect 16 0 18 0;
#X connect 17 0 22 0;
#X connect 18 0 21 0;
#X connect 19 0 2 0;
#X connect 20 0 15 1;
#X connect 20 0 17 1;
#X connect 20 0 16 1;
#X connect 20 0 18 1;
#X connect 20 0 19 1;
#X connect 21 0 15 0;
#X connect 22 0 19 0;
#X connect 23 0 25 0;
#X connect 24 0 26 0;
#X connect 25 0 30 0;
#X connect 26 0 29 0;
#X connect 27 0 2 0;
#X connect 28 0 23 1;
#X connect 28 0 25 1;
#X connect 28 0 24 1;
#X connect 28 0 26 1;
#X connect 28 0 27 1;
#X connect 29 0 23 0;
#X connect 30 0 27 0;
#X connect 31 0 33 0;
#X connect 32 0 34 0;
#X connect 33 0 38 0;
#X connect 34 0 37 0;
#X connect 35 0 2 0;
#X connect 36 0 31 1;
#X connect 36 0 33 1;
#X connect 36 0 32 1;
#X connect 36 0 34 1;
#X connect 36 0 35 1;
#X connect 37 0 31 0;
#X connect 38 0 35 0;
#X connect 39 0 6 0;
#X connect 40 0 20 0;
#X connect 41 0 28 0;
#X connect 42 0 36 0;
#X connect 43 0 39 0;
#X connect 43 0 40 0;
#X connect 43 0 41 0;
#X connect 43 0 42 0;
#X connect 43 0 10 0;
#X connect 44 0 48 0;
#X connect 44 0 48 1;
#X connect 45 0 14 0;
#X connect 46 0 43 0;
#X connect 47 0 44 0;
#X connect 47 0 44 1;
#X connect 48 0 9 0;
