#N canvas 0 0 667 679 10;
#X obj 149 482 line~;
#X obj 128 507 *~;
#X obj 245 481 line~;
#X obj 224 506 *~;
#X obj 228 382 sel 0;
#X obj 215 416 t b b;
#X obj 258 416 t b b;
#X obj 149 416 r init;
#X obj 319 512 line~;
#X obj 224 526 *~;
#X msg 319 488 \$1 5;
#X obj 129 378 *~ 1;
#X obj 129 579 *~ 1;
#X msg 149 450 1 500;
#X msg 182 450 0 500;
#X msg 245 449 1 500;
#X msg 279 450 0 500;
#X obj 227 359 r pjsdisto_on1;
#X obj 319 428 r pjsdisto1;
#X obj 319 465 * 2;
#X obj 224 564 *~ 0.025;
#X obj 224 547 clip~ -0.7 0.7;
#X connect 0 0 1 1;
#X connect 1 0 12 0;
#X connect 2 0 3 1;
#X connect 3 0 9 0;
#X connect 4 0 5 0;
#X connect 4 1 6 0;
#X connect 5 0 13 0;
#X connect 5 1 16 0;
#X connect 6 0 14 0;
#X connect 6 1 15 0;
#X connect 7 0 13 0;
#X connect 7 0 16 0;
#X connect 8 0 9 1;
#X connect 9 0 21 0;
#X connect 10 0 8 0;
#X connect 11 0 1 0;
#X connect 11 0 3 0;
#X connect 13 0 0 0;
#X connect 14 0 0 0;
#X connect 15 0 2 0;
#X connect 16 0 2 0;
#X connect 17 0 4 0;
#X connect 18 0 19 0;
#X connect 19 0 10 0;
#X connect 20 0 12 0;
#X connect 21 0 20 0;
