#N canvas 0 0 957 679 10;
#X obj 186 -192 lop~;
#X obj 238 -207 mtof;
#X obj 186 -154 hip~;
#X obj 111 -230 line~;
#X obj 90 -205 *~;
#X obj 207 -231 line~;
#X obj 186 -212 *~;
#X obj 190 -317 sel 0;
#X obj 177 -296 t b b;
#X obj 220 -296 t b b;
#X obj 111 -296 r init;
#X obj 89 -113 *~ 1;
#X msg 111 -264 1 500;
#X msg 144 -262 0 500;
#X msg 207 -263 1 500;
#X msg 240 -263 0 500;
#X obj 191 -344 r pjsfilter_on1;
#X obj 306 -313 r pjsfilter1;
#X obj 238 -169 - 1000;
#X obj 186 -134 hip~;
#X obj 187 -173 lop~;
#X obj 299 -274 + 27;
#X obj 92 -382 *~ 1;
#X connect 0 0 20 0;
#X connect 1 0 0 1;
#X connect 1 0 18 0;
#X connect 1 0 20 1;
#X connect 2 0 19 0;
#X connect 3 0 4 1;
#X connect 4 0 11 0;
#X connect 5 0 6 1;
#X connect 6 0 0 0;
#X connect 7 0 8 0;
#X connect 7 1 9 0;
#X connect 8 0 12 0;
#X connect 8 1 15 0;
#X connect 9 0 13 0;
#X connect 9 1 14 0;
#X connect 10 0 15 0;
#X connect 10 0 12 0;
#X connect 12 0 3 0;
#X connect 13 0 3 0;
#X connect 14 0 5 0;
#X connect 15 0 5 0;
#X connect 16 0 7 0;
#X connect 17 0 21 0;
#X connect 18 0 2 1;
#X connect 18 0 19 1;
#X connect 19 0 11 0;
#X connect 20 0 2 0;
#X connect 21 0 1 0;
#X connect 22 0 4 0;
#X connect 22 0 6 0;
