#N canvas -8 -8 1366 695 10;
#X obj 91 57 *~ 1;
#X obj 284 191 delread~ \$0-A 100;
#X obj 314 211 delread~ \$0-B 161.8;
#X obj 344 231 delread~ \$0-C 261.8;
#X obj 374 251 delread~ \$0-D 61.8;
#X obj 216 253 +~;
#X obj 258 253 +~;
#X obj 217 275 +~;
#X obj 321 276 +~;
#X obj 259 275 -~;
#X obj 361 275 -~;
#X obj 216 297 +~;
#X obj 260 298 +~;
#X obj 304 299 -~;
#X obj 343 299 -~;
#X obj 304 335 *~ 0;
#X obj 262 334 *~ 0;
#X obj 217 333 *~ 0;
#X obj 345 336 *~ 0;
#X obj 344 356 delwrite~ \$0-D 1000;
#X obj 305 379 delwrite~ \$0-C 1000;
#X obj 263 402 delwrite~ \$0-B 1000;
#X obj 218 424 delwrite~ \$0-A 1000;
#X obj 517 280 / 200;
#X obj 284 170 * 1;
#X obj 314 170 * 1.618;
#X obj 374 170 * 2.618;
#X obj 434 170 / 1.618;
#X obj 284 151 f;
#X obj 517 257 f;
#X msg 284 133 50;
#X msg 517 235 60;
#X obj 108 195 line~;
#X obj 92 220 *~;
#X obj 204 194 line~;
#X obj 188 219 *~;
#X obj 153 108 sel 0;
#X obj 140 142 t b b;
#X obj 183 142 t b b;
#X obj 108 83 r init;
#X obj 151 424 *~ 1;
#X obj 93 424 *~ 1;
#X text 515 74 reverb;
#X msg 108 172 1 500;
#X msg 141 172 0 500;
#X msg 204 171 1 500;
#X msg 236 169 0 500;
#X obj 170 77 r pjsreverb_on1;
#X obj 517 112 r pjsreverb1;
#X obj 284 114 loadbang;
#X connect 0 0 33 0;
#X connect 0 0 35 0;
#X connect 1 0 5 1;
#X connect 2 0 6 1;
#X connect 3 0 10 0;
#X connect 3 0 8 0;
#X connect 4 0 10 1;
#X connect 4 0 8 1;
#X connect 5 0 7 0;
#X connect 5 0 9 0;
#X connect 5 0 41 0;
#X connect 6 0 7 1;
#X connect 6 0 9 1;
#X connect 6 0 40 0;
#X connect 7 0 11 0;
#X connect 7 0 13 0;
#X connect 8 0 13 1;
#X connect 8 0 11 1;
#X connect 9 0 12 0;
#X connect 9 0 14 0;
#X connect 10 0 12 1;
#X connect 10 0 14 1;
#X connect 11 0 17 0;
#X connect 12 0 16 0;
#X connect 13 0 15 0;
#X connect 14 0 18 0;
#X connect 15 0 20 0;
#X connect 16 0 21 0;
#X connect 17 0 22 0;
#X connect 18 0 19 0;
#X connect 23 0 18 1;
#X connect 23 0 15 1;
#X connect 23 0 16 1;
#X connect 23 0 17 1;
#X connect 24 0 1 0;
#X connect 25 0 2 0;
#X connect 26 0 3 0;
#X connect 27 0 4 0;
#X connect 28 0 24 0;
#X connect 28 0 25 0;
#X connect 28 0 26 0;
#X connect 28 0 27 0;
#X connect 29 0 23 0;
#X connect 30 0 28 0;
#X connect 31 0 29 0;
#X connect 32 0 33 1;
#X connect 33 0 41 0;
#X connect 33 0 40 0;
#X connect 34 0 35 1;
#X connect 35 0 5 0;
#X connect 35 0 6 0;
#X connect 36 0 37 0;
#X connect 36 1 38 0;
#X connect 37 0 43 0;
#X connect 37 1 46 0;
#X connect 38 0 44 0;
#X connect 38 1 45 0;
#X connect 39 0 43 0;
#X connect 39 0 46 0;
#X connect 43 0 32 0;
#X connect 44 0 32 0;
#X connect 45 0 34 0;
#X connect 46 0 34 0;
#X connect 47 0 36 0;
#X connect 48 0 29 0;
#X connect 48 0 28 0;
#X connect 49 0 30 0;
#X connect 49 0 31 0;
