#N canvas 0 0 758 672 10;
#X obj 59 168 t b b;
#X obj 59 194 delay 10;
#X obj 59 246 line~;
#X obj 157 294 osc~;
#X obj 161 135 random 3;
#X obj 162 162 select 0 1 2 3;
#X msg 154 200 61;
#X msg 189 200 65;
#X msg 223 200 68;
#X msg 256 200 71;
#X obj 344 133 random 2;
#X obj 347 158 * 12;
#X obj 159 249 + 0;
#X obj 59 62 t b b b;
#X obj 158 273 mtof;
#X obj 117 340 *~ 0.1;
#X obj 109 310 *~;
#X obj 118 388 dac~;
#X msg 59 39 bang;
#X text 121 37 click me;
#X msg 102 219 1 10;
#X msg 59 219 0 500;
#X connect 0 0 1 0;
#X connect 0 1 20 0;
#X connect 1 0 21 0;
#X connect 2 0 16 0;
#X connect 3 0 16 1;
#X connect 4 0 5 0;
#X connect 5 0 6 0;
#X connect 5 1 7 0;
#X connect 5 2 8 0;
#X connect 5 3 9 0;
#X connect 6 0 12 0;
#X connect 7 0 12 0;
#X connect 8 0 12 0;
#X connect 9 0 12 0;
#X connect 10 0 11 0;
#X connect 11 0 12 1;
#X connect 12 0 14 0;
#X connect 13 0 0 0;
#X connect 13 1 4 0;
#X connect 13 2 10 0;
#X connect 14 0 3 0;
#X connect 15 0 17 0;
#X connect 15 0 17 1;
#X connect 16 0 15 0;
#X connect 18 0 13 0;
#X connect 20 0 2 0;
#X connect 21 0 2 0;
