#N canvas 0 0 450 300 10;
#X obj -321 140 line~;
#X obj -270 197 *~;
#X obj -321 167 *~;
#X obj -270 249 dac~;
#X obj -178 151 * 1;
#X obj -270 225 *~ 0.05;
#X obj -270 58 t b b f;
#X obj -247 140 line~;
#X obj -247 167 *~;
#X obj -270 29 r note4;
#X obj -179 174 phasor~ 440;
#X msg -321 117 0 \, 1 5;
#X msg -247 119 1 \, 0 50;
#X connect 0 0 2 1;
#X connect 0 0 2 0;
#X connect 1 0 5 0;
#X connect 2 0 1 0;
#X connect 4 0 10 0;
#X connect 5 0 3 0;
#X connect 5 0 3 1;
#X connect 6 0 11 0;
#X connect 6 1 12 0;
#X connect 6 2 4 0;
#X connect 7 0 8 1;
#X connect 7 0 8 0;
#X connect 8 0 1 0;
#X connect 9 0 6 0;
#X connect 10 0 1 1;
#X connect 11 0 0 0;
#X connect 12 0 7 0;
