#N canvas 0 0 667 679 10;
#X obj 307 172 *~;
#X obj 228 141 phasor~;
#X obj 307 144 phasor~;
#X obj 377 143 phasor~;
#X obj 306 196 osc~;
#X obj 306 218 *~ 0.08;
#X obj 321 62 line~;
#X obj 227 95 *~;
#X obj 307 93 *~;
#X obj 377 93 *~;
#X obj 378 118 +~;
#X obj 308 119 +~;
#X obj 228 118 +~;
#X msg 321 40 \$1 10;
#X text 342 176 ajf2005;
#X obj 243 -144 random 250;
#X obj 243 -75 random 250;
#X obj 242 -10 random 250;
#X obj 395 -157 random 250;
#X obj 393 -90 random 250;
#X obj 393 -23 random 250;
#X obj 369 249 *~;
#X obj 444 137 t b b;
#X obj 444 163 delay 10;
#X obj 444 215 line~;
#X msg 192 -161 bang;
#X msg 513 -174 bang;
#X msg 321 -240 2000;
#X msg 243 -122 \$1 100;
#X msg 243 -54 \$1 100;
#X msg 242 10 \$1 100;
#X msg 394 -136 \$1 100;
#X msg 393 -69 \$1 100;
#X msg 393 -3 \$1 100;
#X msg 487 188 1 0;
#X msg 444 188 0 1000;
#X obj 305 -280 receive pjstouched;
#X obj 243 -100 line~;
#X obj 243 -32 line~;
#X obj 242 29 line~;
#X obj 394 -114 line~;
#X obj 393 -47 line~;
#X obj 393 18 line~;
#X obj 374 307 dac~;
#X msg 369 -247 bang;
#X connect 0 0 4 0;
#X connect 1 0 0 0;
#X connect 2 0 0 0;
#X connect 3 0 0 0;
#X connect 4 0 5 0;
#X connect 5 0 21 0;
#X connect 6 0 0 1;
#X connect 6 0 7 0;
#X connect 6 0 8 0;
#X connect 6 0 9 0;
#X connect 7 0 12 0;
#X connect 8 0 11 0;
#X connect 9 0 10 0;
#X connect 10 0 3 0;
#X connect 11 0 2 0;
#X connect 12 0 1 0;
#X connect 13 0 6 0;
#X connect 15 0 28 0;
#X connect 16 0 29 0;
#X connect 17 0 30 0;
#X connect 18 0 31 0;
#X connect 19 0 32 0;
#X connect 20 0 33 0;
#X connect 21 0 43 0;
#X connect 21 0 43 1;
#X connect 22 0 23 0;
#X connect 22 1 34 0;
#X connect 23 0 35 0;
#X connect 24 0 21 1;
#X connect 25 0 15 0;
#X connect 25 0 16 0;
#X connect 25 0 17 0;
#X connect 26 0 18 0;
#X connect 26 0 19 0;
#X connect 26 0 20 0;
#X connect 27 0 13 0;
#X connect 27 0 25 0;
#X connect 27 0 26 0;
#X connect 27 0 22 0;
#X connect 28 0 37 0;
#X connect 29 0 38 0;
#X connect 30 0 39 0;
#X connect 31 0 40 0;
#X connect 32 0 41 0;
#X connect 33 0 42 0;
#X connect 34 0 24 0;
#X connect 35 0 24 0;
#X connect 36 0 27 0;
#X connect 37 0 9 1;
#X connect 38 0 8 1;
#X connect 39 0 7 1;
#X connect 40 0 12 1;
#X connect 41 0 11 1;
#X connect 42 0 10 1;
#X connect 44 0 27 0;
