#N canvas 0 0 450 300 10;
#X obj 15 111 line~;
#X obj 15 178 *~;
#X obj 15 138 *~;
#X obj 15 68 t b f;
#X obj 15 230 dac~;
#X obj 54 155 osc~ 440;
#X obj 55 132 * 1;
#X obj 15 39 r note8;
#X obj 15 206 *~ 0.05;
#X msg 15 88 0.5 \, 0 20000;
#X connect 0 0 2 1;
#X connect 0 0 2 0;
#X connect 1 0 8 0;
#X connect 2 0 1 0;
#X connect 3 0 9 0;
#X connect 3 1 6 0;
#X connect 5 0 1 1;
#X connect 6 0 5 0;
#X connect 7 0 3 0;
#X connect 8 0 4 0;
#X connect 8 0 4 1;
#X connect 9 0 0 0;
