#N canvas 0 0 667 679 10;
#X obj 110 71 line~;
#X obj 110 -12 trigger bang bang;
#X obj 112 246 *~ 0.5;
#X obj 111 218 *~;
#X obj 128 126 noise~;
#X msg 110 43 0 10;
#X obj 128 153 lop~ 2000;
#X obj 128 181 hip~ 1000;
#X obj 110 -33 receive pjstick;
#X obj 112 276 dac~;
#X msg 65 -34 bang;
#X obj 110 14 delay 5;
#X msg 226 13 1 5;
#X connect 0 0 3 0;
#X connect 1 0 11 0;
#X connect 1 1 12 0;
#X connect 2 0 9 0;
#X connect 2 0 9 1;
#X connect 3 0 2 0;
#X connect 4 0 6 0;
#X connect 5 0 0 0;
#X connect 6 0 7 0;
#X connect 7 0 3 1;
#X connect 8 0 1 0;
#X connect 10 0 1 0;
#X connect 11 0 5 0;
#X connect 12 0 0 0;
