#N canvas 0 0 616 605 10;
#X obj 89 138 r pdx;
#X obj 232 139 r pdy;
#X obj 66 392 +~;
#X obj -1 310 *~;
#X obj 89 174 t f b;
#X obj 89 230 pack f f;
#X obj 89 259 line~;
#X obj 232 215 t f b;
#X obj 232 271 pack f f;
#X obj 232 300 line~;
#X obj 0 176 osc~ 50;
#X obj 65 414 osc~;
#X obj 134 198 f 100;
#X obj 277 242 f 100;
#X obj 161 138 r pdindex;
#X obj 304 140 r pdratio;
#X obj 65 439 *~ 0.0065;
#X obj 65 575 *~;
#X obj 139 460 t f b;
#X obj 139 502 pack f f;
#X obj 139 522 line~;
#X obj 184 481 f 5;
#X obj 65 603 dac~;
#X obj 139 439 r pdoovol;
#X obj 0 137 r pdoofreq;
#X connect 0 0 4 0;
#X connect 1 0 7 0;
#X connect 2 0 11 0;
#X connect 3 0 2 0;
#X connect 4 0 5 0;
#X connect 4 1 12 0;
#X connect 5 0 6 0;
#X connect 6 0 3 1;
#X connect 7 0 8 0;
#X connect 7 1 13 0;
#X connect 8 0 9 0;
#X connect 9 0 2 1;
#X connect 10 0 3 0;
#X connect 11 0 16 0;
#X connect 12 0 5 1;
#X connect 13 0 8 1;
#X connect 14 0 12 1;
#X connect 15 0 13 1;
#X connect 16 0 17 0;
#X connect 17 0 22 0;
#X connect 17 0 22 1;
#X connect 18 0 19 0;
#X connect 18 1 21 0;
#X connect 19 0 20 0;
#X connect 20 0 17 1;
#X connect 21 0 19 1;
#X connect 23 0 18 0;
#X connect 24 0 10 0;
